<svg version="1.1" id="Layer_1" xmlns="http://www.w3.org/2000/svg" xmlns:xlink="http://www.w3.org/1999/xlink" x="0px" y="0px"
	 width="100%" viewBox="0 0 500 500" enable-background="new 0 0 500 500" xml:space="preserve">
<path fill="#FFFFFF" opacity="1.000000" stroke="none" 
	d="
M457.000000,1.000000 
	C471.662903,1.000000 486.325836,1.000000 500.991577,1.000000 
	C500.994385,167.620209 500.994385,334.240417 500.994385,500.930298 
	C334.422516,500.930298 167.844986,500.930298 1.133726,500.930298 
	C1.133726,334.333405 1.133726,167.666718 1.133726,1.000000 
	C51.424900,1.000000 101.745468,1.000000 152.673157,1.324214 
	C161.331970,21.334728 169.972382,40.806129 177.260178,60.771263 
	C183.793243,78.668785 189.039352,97.076439 186.211853,116.835762 
	C188.443542,116.835762 190.287827,117.104263 192.028473,116.793114 
	C205.448746,114.394135 218.884766,114.717834 232.219879,117.028755 
	C259.652496,121.782707 280.639404,136.015930 293.462555,160.967819 
	C298.178192,170.143799 301.317596,180.129837 304.914307,189.094147 
	C304.801056,189.531723 304.935059,189.061386 305.044220,188.585342 
	C309.337128,169.865356 317.274536,152.928360 331.253113,139.558655 
	C352.272247,119.455025 378.166840,113.731499 406.348450,115.716125 
	C412.083008,116.119972 417.807434,116.668098 423.762634,117.168732 
	C421.833984,105.803375 423.070435,95.295486 425.487732,84.875671 
	C432.295441,55.531124 444.415649,28.177183 457.000000,1.000000 
M78.651466,435.812958 
	C94.090714,452.217896 113.985909,460.420074 135.163910,465.883026 
	C163.050003,473.076416 191.342148,474.010712 219.829239,470.031647 
	C251.155457,465.655975 280.217896,455.057068 306.185181,437.000854 
	C343.203430,411.260437 368.623108,376.112823 386.011688,334.958038 
	C391.959900,320.879944 396.499969,306.212524 402.221985,292.031708 
	C408.447845,276.602295 420.018127,267.946747 436.879120,266.894379 
	C444.066376,266.445709 451.255951,266.033661 459.217316,265.558899 
	C440.634918,246.136322 419.262054,233.746597 392.650940,232.150772 
	C373.981750,231.031219 357.208038,237.205383 342.068268,247.684921 
	C319.696228,263.170563 302.324005,283.585907 287.242462,305.902985 
	C274.480804,324.787201 262.817352,344.409943 250.279404,363.450043 
	C238.753174,380.953766 224.424240,395.608276 205.075836,404.626282 
	C194.880951,409.377991 184.148163,411.963409 172.925354,412.628113 
	C173.822678,411.754059 174.861893,411.326141 175.871201,410.836609 
	C177.067062,410.256592 178.244446,409.637115 179.417358,409.011383 
	C209.415222,393.008484 229.480469,367.943054 242.492310,337.309723 
	C253.329727,311.795471 266.722229,288.282440 284.996521,267.269226 
	C305.883453,243.251816 301.423126,204.136200 276.950226,183.870407 
	C259.132629,169.115799 238.583801,161.336472 215.897934,159.320221 
	C205.101212,158.360626 194.140900,159.241592 182.758911,159.290955 
	C186.419220,175.420639 188.144653,190.191925 186.030548,205.237320 
	C182.946442,227.185806 174.052155,246.177414 156.542435,260.126953 
	C136.678101,275.952362 117.854904,292.749756 101.910187,312.596161 
	C87.111595,331.015991 74.314873,350.600006 67.705788,373.584930 
	C61.326965,395.768982 62.994728,416.694183 78.651466,435.812958 
z"/>
<path fill="#D0C673" opacity="1.000000" stroke="none" 
	d="
M456.600006,1.000000 
	C444.415649,28.177183 432.295441,55.531124 425.487732,84.875671 
	C423.070435,95.295486 421.833984,105.803375 423.762634,117.168732 
	C417.807434,116.668098 412.083008,116.119972 406.348450,115.716125 
	C378.166840,113.731499 352.272247,119.455025 331.253113,139.558655 
	C317.274536,152.928360 309.337128,169.865356 305.044220,188.585342 
	C304.935059,189.061386 304.801056,189.531723 304.914307,189.094147 
	C301.317596,180.129837 298.178192,170.143799 293.462555,160.967819 
	C280.639404,136.015930 259.652496,121.782707 232.219879,117.028755 
	C218.884766,114.717834 205.448746,114.394135 192.028473,116.793114 
	C190.287827,117.104263 188.443542,116.835762 186.211853,116.835762 
	C189.039352,97.076439 183.793243,78.668785 177.260178,60.771263 
	C169.972382,40.806129 161.331970,21.334728 153.140137,1.324214 
	C154.066666,1.000000 155.133347,1.000000 156.864777,1.270286 
	C172.431213,3.900014 185.926514,10.136916 198.382126,18.127831 
	C212.765762,27.355661 226.389740,37.772915 240.267578,47.779095 
	C242.889282,49.669388 244.888718,51.150875 248.610962,49.530830 
	C254.980194,46.758736 261.721222,44.783390 268.402100,42.796188 
	C285.113586,37.825436 302.206818,34.529263 319.504425,38.119213 
	C333.910736,41.109112 347.946228,45.863216 362.209442,49.593140 
	C364.060211,50.077122 366.751465,49.760784 368.261047,48.693954 
	C373.276794,45.149288 377.818146,40.942162 382.743134,37.258778 
	C404.133331,21.261070 426.486938,7.088924 453.000000,1.000000 
	C454.066681,1.000000 455.133331,1.000000 456.600006,1.000000 
M387.373779,51.910152 
	C384.705811,53.686016 382.037842,55.461880 378.190369,58.022861 
	C393.950745,57.207478 397.413757,68.014305 401.755096,78.856354 
	C402.972839,74.336906 404.029083,70.416832 405.428772,65.222015 
	C407.648529,73.639488 409.523956,80.751099 410.832886,85.714706 
	C415.365631,67.046432 420.319489,46.643597 425.387390,25.771210 
	C412.824188,34.416653 400.401245,42.965569 387.373779,51.910152 
M223.423691,58.689606 
	C225.438538,58.332554 227.453384,57.975498 230.389923,57.455112 
	C214.705887,46.592316 199.752121,36.235306 184.681000,25.797020 
	C189.718155,46.879066 194.584244,67.245178 199.103745,86.160706 
	C200.538864,80.851646 202.440720,73.815948 204.706970,65.432243 
	C206.090744,70.350342 207.086609,73.889694 208.279007,78.127586 
	C211.976028,70.168976 214.173981,62.114090 223.423691,58.689606 
z"/>
<path fill="#FFFFFE" opacity="1.000000" stroke="none" 
	d="
M452.531342,1.000000 
	C426.486938,7.088924 404.133331,21.261070 382.743134,37.258778 
	C377.818146,40.942162 373.276794,45.149288 368.261047,48.693954 
	C366.751465,49.760784 364.060211,50.077122 362.209442,49.593140 
	C347.946228,45.863216 333.910736,41.109112 319.504425,38.119213 
	C302.206818,34.529263 285.113586,37.825436 268.402100,42.796188 
	C261.721222,44.783390 254.980194,46.758736 248.610962,49.530830 
	C244.888718,51.150875 242.889282,49.669388 240.267578,47.779095 
	C226.389740,37.772915 212.765762,27.355661 198.382126,18.127831 
	C185.926514,10.136916 172.431213,3.900014 157.264771,1.270286 
	C255.354233,1.000000 353.708466,1.000000 452.531342,1.000000 
z"/>
<path fill="#D0C672" opacity="1.000000" stroke="none" 
	d="
M78.432709,435.532898 
	C62.994728,416.694183 61.326965,395.768982 67.705788,373.584930 
	C74.314873,350.600006 87.111595,331.015991 101.910187,312.596161 
	C117.854904,292.749756 136.678101,275.952362 156.542435,260.126953 
	C174.052155,246.177414 182.946442,227.185806 186.030548,205.237320 
	C188.144653,190.191925 186.419220,175.420639 182.758911,159.290955 
	C194.140900,159.241592 205.101212,158.360626 215.897934,159.320221 
	C238.583801,161.336472 259.132629,169.115799 276.950226,183.870407 
	C301.423126,204.136200 305.883453,243.251816 284.996521,267.269226 
	C266.722229,288.282440 253.329727,311.795471 242.492310,337.309723 
	C229.480469,367.943054 209.415222,393.008484 179.417358,409.011383 
	C178.244446,409.637115 177.067062,410.256592 175.871201,410.836609 
	C174.861893,411.326141 173.822678,411.754059 172.925354,412.628113 
	C184.148163,411.963409 194.880951,409.377991 205.075836,404.626282 
	C224.424240,395.608276 238.753174,380.953766 250.279404,363.450043 
	C262.817352,344.409943 274.480804,324.787201 287.242462,305.902985 
	C302.324005,283.585907 319.696228,263.170563 342.068268,247.684921 
	C357.208038,237.205383 373.981750,231.031219 392.650940,232.150772 
	C419.262054,233.746597 440.634918,246.136322 459.217316,265.558899 
	C451.255951,266.033661 444.066376,266.445709 436.879120,266.894379 
	C420.018127,267.946747 408.447845,276.602295 402.221985,292.031708 
	C396.499969,306.212524 391.959900,320.879944 386.011688,334.958038 
	C368.623108,376.112823 343.203430,411.260437 306.185181,437.000854 
	C280.217896,455.057068 251.155457,465.655975 219.829239,470.031647 
	C191.342148,474.010712 163.050003,473.076416 135.163910,465.883026 
	C113.985909,460.420074 94.090714,452.217896 78.432709,435.532898 
M356.636444,281.957153 
	C356.101013,283.731323 355.565613,285.505493 354.764435,288.160217 
	C362.222931,284.319885 368.657196,281.006927 375.500824,277.483185 
	C377.282501,285.368500 378.904877,292.548676 380.554413,299.849060 
	C381.317261,299.486877 381.721680,299.430725 381.838470,299.217255 
	C382.556122,297.905273 383.222137,296.564331 383.880798,295.221008 
	C388.964996,284.852814 394.975403,275.102966 403.605621,267.277557 
	C413.452576,258.348816 424.749115,253.787964 438.411041,256.556793 
	C421.207123,244.545181 403.001770,237.247696 381.611603,243.068634 
	C367.388428,246.939209 339.472382,269.682098 336.945007,279.809906 
	C344.536804,276.110413 351.944336,272.500702 360.590485,268.287415 
	C359.120850,273.412262 358.000916,277.317566 356.636444,281.957153 
z"/>
<path fill="#FEFEFC" opacity="1.000000" stroke="none" 
	d="
M387.676025,51.712318 
	C400.401245,42.965569 412.824188,34.416653 425.387390,25.771210 
	C420.319489,46.643597 415.365631,67.046432 410.832886,85.714706 
	C409.523956,80.751099 407.648529,73.639488 405.428772,65.222015 
	C404.029083,70.416832 402.972839,74.336906 401.755096,78.856354 
	C397.413757,68.014305 393.950745,57.207478 378.190369,58.022861 
	C382.037842,55.461880 384.705811,53.686016 387.676025,51.712318 
z"/>
<path fill="#FEFEFC" opacity="1.000000" stroke="none" 
	d="
M223.053864,58.804661 
	C214.173981,62.114090 211.976028,70.168976 208.279007,78.127586 
	C207.086609,73.889694 206.090744,70.350342 204.706970,65.432243 
	C202.440720,73.815948 200.538864,80.851646 199.103745,86.160706 
	C194.584244,67.245178 189.718155,46.879066 184.681000,25.797020 
	C199.752121,36.235306 214.705887,46.592316 230.389923,57.455112 
	C227.453384,57.975498 225.438538,58.332554 223.053864,58.804661 
z"/>
<path fill="#FEFEFD" opacity="1.000000" stroke="none" 
	d="
M356.758728,281.590027 
	C358.000916,277.317566 359.120850,273.412262 360.590485,268.287415 
	C351.944336,272.500702 344.536804,276.110413 336.945007,279.809906 
	C339.472382,269.682098 367.388428,246.939209 381.611603,243.068634 
	C403.001770,237.247696 421.207123,244.545181 438.411041,256.556793 
	C424.749115,253.787964 413.452576,258.348816 403.605621,267.277557 
	C394.975403,275.102966 388.964996,284.852814 383.880798,295.221008 
	C383.222137,296.564331 382.556122,297.905273 381.838470,299.217255 
	C381.721680,299.430725 381.317261,299.486877 380.554413,299.849060 
	C378.904877,292.548676 377.282501,285.368500 375.500824,277.483185 
	C368.657196,281.006927 362.222931,284.319885 354.764435,288.160217 
	C355.565613,285.505493 356.101013,283.731323 356.758728,281.590027 
z"/>
</svg>